# xmcd
#
# Track frame offsets:
#	150
#	37064
#	58415
#	90482
#
# Disc length: 1647 seconds
#
# Revision: 1
# Processed by: cddbd v1.5.1PL2 Copyright (c) Steve Scherf et al.
# Submitted via: EasyCDDAExtractor 9.0.0.1
#
DISCID=32066d04
DTITLE=Black Sabbath - Westfalenhalle Dortmund 09-06-05 Disc 2 Source 3
DYEAR=2005
DGENRE=Hard Rock
TTITLE0=Black Sabbath 
TTITLE1=The Wizard 
TTITLE2=Sabbath Bloody Sabbath - Paranoid 
TTITLE3=Children Of The Grave 
EXTD=
EXTT0=
EXTT1=
EXTT2=
EXTT3=
PLAYORDER=
